<svg xmlns="http://www.w3.org/2000/svg" width="21.8" height="32" viewBox="0 0 21.8 32"><path d="M21.05 13.32a2.944 2.944 0 0 0 .16-.94 2.8 2.8 0 0 0-2.07-2.71 2.752 2.752 0 0 0 .2-1.04 2.82 2.82 0 0 0-2.4-2.78 3.752 3.752 0 0 0-2-5.45L13.79 0l-.09 1.22a.928.928 0 0 1-.93.85H7.15a2.812 2.812 0 0 0-2.81 2.81 2.752 2.752 0 0 0 .2 1.04 2.811 2.811 0 0 0-2.08 2.71 2.752 2.752 0 0 0 .2 1.04 2.8 2.8 0 0 0-2.07 2.71 2.944 2.944 0 0 0 .16.94H0l3.39 7.49h1.78L7.31 32h7.18l2.14-11.19h1.78l3.39-7.49zm-8.11 16.81H8.86l-1.78-9.32h7.64zm4.26-11.19H4.6l-1.7-3.75h16zm1.2-5.62h-15a.94.94 0 0 1 0-1.88h3.75V9.57H5.28a.94.94 0 1 1 0-1.88h3.75V5.82H7.15a.94.94 0 0 1 0-1.88h5.62a2.811 2.811 0 0 0 2.34-1.25 1.877 1.877 0 0 1-1.4 3.13h-.94v1.87h3.75a.94.94 0 1 1 0 1.88h-1.87v1.87h3.75a.94.94 0 0 1 0 1.88z" data-name="Path 883"/></svg>