<svg xmlns="http://www.w3.org/2000/svg" width="22.49" height="31.004" viewBox="0 0 22.49 31.004"><path  d="M21.663 9.554a3.051 3.051 0 0 0-.84-2.09 3.289 3.289 0 0 0-.918-.67 3.082 3.082 0 0 0-2.659-3.76 3.313 3.313 0 0 0-.834.02v-.1a5.592 5.592 0 0 0-10.329.04v.06a4.141 4.141 0 0 0-.5-.04 3.113 3.113 0 0 0-3.071 3.18 3.189 3.189 0 0 0 .079.61 3.059 3.059 0 0 0-1.759 2.75H.006l3.387 21.45h15.716l3.387-21.45zM3.875 8.324l.886-.03v-1.19l-.184-.24a1.274 1.274 0 0 1 1-2.03 1.253 1.253 0 0 1 .985.47c.03.04.057.07.07.09l.605.63.658-.58c.079-.07.161-.14.245-.22l.7-.6-.626-.69a1.262 1.262 0 0 1 .864-2.11 1.257 1.257 0 0 1 1.281.91l.191.65h1.37l.19-.65a1.262 1.262 0 1 1 2.172 1.17l-.548.64 1.549 1.54.633-.78a1.247 1.247 0 0 1 1.125-.46 1.274 1.274 0 0 1 1.112 1.13 1.255 1.255 0 0 1-.251.89l-.185.24v1.2l.887.02a1.208 1.208 0 0 1 .889.39 1.26 1.26 0 0 1 .344.84H2.645a1.243 1.243 0 0 1 1.23-1.23zm11.584 3.05l-.471 5.01a9.1 9.1 0 0 0-2.835-.69v-4.32zm-5.122 0v4.32a9.1 9.1 0 0 0-2.835.69l-.471-5.01zm-5.4 17.81l-2.813-17.81h3.08l.586 6.23a2.6 2.6 0 0 0-.667 1.71 2.748 2.748 0 0 0 1.023 2.07l.733 7.8zm5.4 0H8.706l-.632-6.72a9.374 9.374 0 0 0 2.263.47zm3.447 0h-1.631v-6.25a9.374 9.374 0 0 0 2.263-.47zm-2.539-8.03c-2.627 0-4.3-1.09-4.3-1.84s1.677-1.84 4.3-1.84 4.3 1.09 4.3 1.84-1.673 1.84-4.3 1.84zm6.306 8.03h-1.942l.733-7.8a2.748 2.748 0 0 0 1.023-2.07 2.6 2.6 0 0 0-.667-1.71l.585-6.23h3.081z" data-name="Path 872"/></svg>