<svg xmlns="http://www.w3.org/2000/svg" width="15" height="14" viewBox="0 0 15 14"><defs><clipPath id="a"><path  d="M0 0h15v14H0z" data-name="Rectangle 9" transform="translate(805 684)"/></clipPath></defs><g clip-path="url(#a)" data-name="Group 4" transform="translate(-805 -684)"><path  d="M811.752 684.487l-1.7 3.62-3.8.582a.888.888 0 0 0-.461 1.493l2.748 2.818-.651 3.978a.842.842 0 0 0 1.208.922l3.4-1.879 3.4 1.879a.843.843 0 0 0 1.209-.922l-.644-3.978 2.752-2.817a.887.887 0 0 0-.461-1.493l-3.8-.582-1.7-3.62a.817.817 0 0 0-1.5-.001z" data-name="Path 19"/></g></svg>