<svg xmlns="http://www.w3.org/2000/svg" width="30" height="36" viewBox="0 0 30 36"><defs><clipPath id="a"><path d="M0 0h30v36H0z" data-name="Rectangle 45" transform="translate(207 1865)"/></clipPath></defs><g clip-path="url(#a)" data-name="Group 20" transform="translate(-207 -1865)"><path d="M207 1879.98v10.54a10.165 10.165 0 0 0 3.021 7.42 9.912 9.912 0 0 0 7.326 3.06h2.986a9.861 9.861 0 0 0 6.771-2.57 10.306 10.306 0 0 0 3.438-6.43h.139a6.029 6.029 0 0 0 5.972-5.98 5.834 5.834 0 0 0-1.771-4.25 5.686 5.686 0 0 0-4.2-1.79 2.868 2.868 0 0 0-.869-2.08 2.806 2.806 0 0 0-2.048-.88h-17.779a2.984 2.984 0 0 0-2.986 2.96zm23.681 3.02a2.85 2.85 0 0 1 2.118.88 2.925 2.925 0 0 1 .868 2.14 2.984 2.984 0 0 1-2.986 2.96zm-2.917 7.52a7.244 7.244 0 0 1-2.153 5.28 7.143 7.143 0 0 1-5.278 2.18h-2.986a7.062 7.062 0 0 1-5.208-2.18 7.244 7.244 0 0 1-2.153-5.28v-10.54h17.778zm-10.7-23.13a1.464 1.464 0 0 0-.416-2.11 1.251 1.251 0 0 0-1.945.35l-.764.99a6.841 6.841 0 0 0-1.007 4.39 6.54 6.54 0 0 0 1.91 4.04 1.478 1.478 0 0 0 2.084 0 1.448 1.448 0 0 0 0-2.1 3.611 3.611 0 0 1-1.042-2.22 3.538 3.538 0 0 1 .625-2.43zm5.209 3.73l.555-.57a1.449 1.449 0 0 0 .139-2.1 1.085 1.085 0 0 0-.937-.46 1.471 1.471 0 0 0-1.077.31l-.625.57a3.493 3.493 0 0 0-1.319 3.16 4.139 4.139 0 0 0 2.222 3.17.571.571 0 0 0 .556.28 1.708 1.708 0 0 0 1.389-.71 1.368 1.368 0 0 0-.625-2.11c-.51-.32-.764-.58-.764-.77z" data-name="Path 64"/></g></svg>