<svg width="23.14" height="32" viewBox="0 0 23.14 32"><path d="M20.1 15.12a3.736 3.736 0 00-3.2-5.67h-4.39V7.73a2.817 2.817 0 001.87-2.65c0-2.2-1.93-4.2-2.15-4.42L11.57 0l-.66.66c-.22.22-2.15 2.22-2.15 4.42a2.817 2.817 0 001.87 2.65v1.72H6.24A31.726 31.726 0 010 18.79v.06a3.745 3.745 0 002.09 3.36L3.4 32h16.34l1.31-9.79a3.745 3.745 0 002.09-3.36v-.06a3.744 3.744 0 00-3.04-3.67zM11.57 2.79a4.356 4.356 0 01.94 2.29.94.94 0 01-1.88 0 4.356 4.356 0 01.94-2.29zm-5.33 8.54H16.9a1.86 1.86 0 010 3.72H6.24a1.86 1.86 0 010-3.72zm-2.2 11.26h2.28l.5 7.53H5.04zm10.9 0l-.5 7.53h-1.93v-7.53zm-4.31 7.53H8.7l-.5-7.53h2.43zm7.47 0h-1.78l.5-7.53h2.28zm3.17-11.27a1.863 1.863 0 01-1.86 1.86H3.73a1.863 1.863 0 01-1.86-1.86v-.06a1.863 1.863 0 011.86-1.86h15.68a1.863 1.863 0 011.86 1.86z" data-name="Path 907"/></svg>