<svg width="33" height="33" viewBox="0 0 33 33"><defs><clipPath id="a"><path fill="#fff" d="M0 0h33v33H0z" data-name="Rectangle 392" transform="translate(404 1866)"/></clipPath></defs><g stroke="#000" stroke-width=".5" clip-path="url(#a)" data-name="Group 205" transform="translate(-404 -1866)"><path d="M428.422 1874.44a3.594 3.594 0 00.4-3.66 6.648 6.648 0 00-.991-1.73.546.546 0 10-.838.7c.026.03 1.9 2.33.572 4.02-1.907 2.43.126 5.64.214 5.77a.549.549 0 00.458.25.548.548 0 00.458-.84c-.019-.03-1.695-2.69-.273-4.51z" data-name="Path 867"/><path d="M432.085 1874.44a3.594 3.594 0 00.4-3.66 6.648 6.648 0 00-.991-1.73.546.546 0 10-.838.7c.019.02 1.9 2.32.572 4.02-1.908 2.43.126 5.64.214 5.77a.548.548 0 00.458.25.548.548 0 00.458-.84c-.018-.03-1.699-2.69-.273-4.51z" data-name="Path 868"/><path d="M409.17 1874.69a3.594 3.594 0 00.4-3.66 6.647 6.647 0 00-.991-1.73.546.546 0 10-.838.7c.019.02 1.9 2.33.572 4.02-1.908 2.43.126 5.64.214 5.77a.559.559 0 00.754.17.552.552 0 00.162-.76c-.019-.02-1.699-2.69-.273-4.51z" data-name="Path 869"/><path d="M412.833 1874.69a3.594 3.594 0 00.4-3.66 6.613 6.613 0 00-.991-1.73.546.546 0 10-.838.7c.019.02 1.9 2.33.572 4.02-1.908 2.43.126 5.64.214 5.77a.559.559 0 00.754.17.552.552 0 00.162-.76c-.019-.02-1.699-2.69-.273-4.51z" data-name="Path 870"/><path d="M435.188 1891.84h-1.157a13.541 13.541 0 00-12.328-12.92v-.55a2.283 2.283 0 00-1.178-4.24h-.05a2.283 2.283 0 00-1.178 4.24v.55a13.541 13.541 0 00-12.328 12.92h-1.157a1.812 1.812 0 00-1.812 1.81v.68a1.82 1.82 0 001.811 1.82h29.378a1.82 1.82 0 001.811-1.82v-.68a1.812 1.812 0 00-1.812-1.81zm-15.907-15.43a1.191 1.191 0 011.194-1.19h.049a1.19 1.19 0 01.434 2.3.54.54 0 00-.346.51v.84h-.224v-.84a.54.54 0 00-.346-.51 1.19 1.19 0 01-.761-1.11zm15.907 18.65h-29.377a.728.728 0 01-.72-.73v-.68a.725.725 0 01.72-.72h20.51a.542.542 0 00.546-.54.551.551 0 00-.546-.55h-18.259a12.445 12.445 0 0112.363-11.88h.15a12.445 12.445 0 0112.363 11.88h-3.087a.55.55 0 00-.546.55.542.542 0 00.546.54h5.337a.725.725 0 01.72.72v.68h0a.728.728 0 01-.72.73z" data-name="Path 871"/></g></svg>