<svg width="32" height="32" viewBox="0 0 32 32"><defs><clipPath id="a"><path fill="#fff" d="M0 0h32v32H0z" data-name="Rectangle 393" transform="translate(804 1867)"/></clipPath></defs><g clip-path="url(#a)" data-name="Group 209" transform="translate(-804 -1867)"><path d="M818.533 1891.76a3.005 3.005 0 004.772-.63s.005-.01.007-.01c.01-.02.016-.03.024-.05a3.029 3.029 0 00.377-1.36v-.02a3.1 3.1 0 00-.017-.34c-.006-.06-.01-.13-.02-.2-.015-.1-.037-.19-.06-.29a3.133 3.133 0 00-.173-.49 2.506 2.506 0 00-.15-.28c-.037-.06-.069-.13-.11-.19a3.089 3.089 0 00-.354-.43l-1.29-1.3a3.036 3.036 0 00-4.3 0 1.267 1.267 0 00-.176.21l-.039.05s-.005.01-.009.01a3.038 3.038 0 00.224 4.03zm-.169-4.94a.794.794 0 00.115-.07 1.336 1.336 0 01.182-.09.676.676 0 01.131-.05l.191-.06a.629.629 0 01.136-.02 1.314 1.314 0 01.2-.02h.136a1.341 1.341 0 01.2.02.584.584 0 01.131.02.77.77 0 01.2.06.633.633 0 01.121.04 1.664 1.664 0 01.209.11c.031.02.061.03.093.05a1.7 1.7 0 01.273.23l1.29 1.29a1.718 1.718 0 01.241.3l.019.03a1.925 1.925 0 01.151.31s0 .01.005.01a1.956 1.956 0 01.091.35 1.934 1.934 0 01.017.38l-.622-.59a2.149 2.149 0 00-1.459-.6.848.848 0 00-.159.01.846.846 0 01-.642-.22l-1.277-1.47c.007-.01.016-.02.026-.02zm-.734 1.06l1.107 1.27a2.112 2.112 0 001.618.59.9.9 0 01.682.25l.947.9-.008.01a1.83 1.83 0 01-2.581 0l-1.289-1.29a1.816 1.816 0 01-.476-1.73z" data-name="Path 876"/><path d="M811.524 1880.15h.646l.422 6.54.522 8.09.162 2.51a1.829 1.829 0 001.824 1.71h9.881a1.83 1.83 0 001.821-1.71l.161-2.51.523-8.09.422-6.54h.646a1.221 1.221 0 001.216-1.22v-2.43a1.221 1.221 0 00-1.216-1.22h-.813l-1.12-2.66a.609.609 0 00-.56-.38h-12.04a.609.609 0 00-.561.38l-1.12 2.66h-.813a1.221 1.221 0 00-1.216 1.22v2.43a1.221 1.221 0 001.213 1.22zm14.061 17.06a.6.6 0 01-.608.57H815.1a.6.6 0 01-.608-.57l-.119-1.86h11.335zm.829-12.84l-.631 9.77H814.29l-.629-9.77-.036-.57h12.825zm.115-1.79h-12.983l-.157-2.43h13.3zm-12.107-9.12h11.231l.766 1.82h-12.763zm-2.9 3.04h17.027v2.43h-17.025z" data-name="Path 877"/><path d="M823.674 1871.03h.012a.612.612 0 00.608-.6 1.364 1.364 0 01.482-1.01 2.536 2.536 0 00.79-1.8.613.613 0 00-.6-.62h-.012a.605.605 0 00-.608.6 1.363 1.363 0 01-.481 1.01 2.541 2.541 0 00-.791 1.8.614.614 0 00.6.62z" data-name="Path 878"/><path d="M826.8 1871.03h.012a.612.612 0 00.608-.6 1.36 1.36 0 01.482-1.01 2.544 2.544 0 00.79-1.8.614.614 0 00-.6-.62h-.013a.613.613 0 00-.608.6 1.36 1.36 0 01-.482 1.01 2.544 2.544 0 00-.79 1.8.609.609 0 00.601.62z" data-name="Path 879"/></g></svg>