<svg width="22" height="22" viewBox="0 0 22 22"><path fill="#f2994a" d="M11.069 1.925h4.426a5.58 5.58 0 012.075.412 2.488 2.488 0 011.245.825 3.245 3.245 0 01.83 1.237 5.487 5.487 0 01.415 2.062v8.8a5.487 5.487 0 01-.415 2.062 2.472 2.472 0 01-.83 1.237 3.268 3.268 0 01-1.245.825 5.58 5.58 0 01-2.075.412H6.643a5.58 5.58 0 01-2.075-.412 2.488 2.488 0 01-1.245-.825 3.245 3.245 0 01-.83-1.237 5.487 5.487 0 01-.415-2.062v-8.8A5.487 5.487 0 012.493 4.4a2.472 2.472 0 01.83-1.237 3.268 3.268 0 011.245-.825 5.58 5.58 0 012.075-.413h4.426m0-1.925H6.503a14.769 14.769 0 00-2.627.55A5.806 5.806 0 001.94 1.787 4.222 4.222 0 00.553 3.849a14.52 14.52 0 00-.55 2.613v9.074a5.551 5.551 0 00.55 2.612 5.762 5.762 0 001.245 1.925 5.806 5.806 0 001.944 1.237 10.2 10.2 0 002.761.69h9.127a5.643 5.643 0 002.628-.55 5.4 5.4 0 003.187-3.162 8.83 8.83 0 00.55-2.612V6.6a5.551 5.551 0 00-.55-2.612 5.762 5.762 0 00-1.242-1.926A5.806 5.806 0 0018.258.825 5.9 5.9 0 0015.634 0z" data-name="Path 79" opacity=".8"/><path fill="#f2994a" d="M11.07 5.538a5.46 5.46 0 105.458 5.46 5.459 5.459 0 00-5.458-5.46zm0 9.057a3.6 3.6 0 112.568-1.041 3.6 3.6 0 01-2.568 1.041z" data-name="Path 80" opacity=".8"/><circle cx="1.42" cy="1.42" r="1.42" fill="#f2994a" data-name="Ellipse 2" opacity=".8" transform="translate(15.574 3.695)"/></svg>