<svg width="22" height="20" viewBox="0 0 22 20"><path d="M21.393.37a8.452 8.452 0 01-2.868 1.222A4.3 4.3 0 0015.23 0a4.807 4.807 0 00-4.512 5.049 5.592 5.592 0 00.116 1.15A12.415 12.415 0 011.532.921a5.508 5.508 0 00-.611 2.542 5.227 5.227 0 002.012 4.2 4.157 4.157 0 01-2.05-.631V7.1A4.946 4.946 0 004.5 12.048a3.967 3.967 0 01-1.189.174 4.044 4.044 0 01-.85-.09 4.611 4.611 0 004.216 3.5A8.414 8.414 0 010 17.733 11.828 11.828 0 006.914 20c8.3 0 12.842-7.692 12.842-14.364 0-.222 0-.444-.012-.654A9.8 9.8 0 0022 2.368a8.281 8.281 0 01-2.592.794A5 5 0 0021.393.37"/></svg>