<svg width="0" height="0" style="position:absolute"><symbol viewBox="0 0 14 16" id="svg-arrow-icon"><path fill="#fff" d="M14 8L0 16V0z" data-name="Path 169"/></symbol><symbol viewBox="0 0 29.107 29.107" id="svg-black-circle"><path d="M14.554 0C6.561 0 0 6.562 0 14.552c0 7.996 6.561 14.555 14.554 14.555 7.996 0 14.553-6.559 14.553-14.555C29.106 6.562 22.55 0 14.554 0z"/></symbol><symbol viewBox="0 0 23.14 32" id="svg-cake-icon"><path d="M20.1 15.12a3.736 3.736 0 00-3.2-5.67h-4.39V7.73a2.817 2.817 0 001.87-2.65c0-2.2-1.93-4.2-2.15-4.42L11.57 0l-.66.66c-.22.22-2.15 2.22-2.15 4.42a2.817 2.817 0 001.87 2.65v1.72H6.24A31.726 31.726 0 010 18.79v.06a3.745 3.745 0 002.09 3.36L3.4 32h16.34l1.31-9.79a3.745 3.745 0 002.09-3.36v-.06a3.744 3.744 0 00-3.04-3.67zM11.57 2.79a4.356 4.356 0 01.94 2.29.94.94 0 01-1.88 0 4.356 4.356 0 01.94-2.29zm-5.33 8.54H16.9a1.86 1.86 0 010 3.72H6.24a1.86 1.86 0 010-3.72zm-2.2 11.26h2.28l.5 7.53H5.04zm10.9 0l-.5 7.53h-1.93v-7.53zm-4.31 7.53H8.7l-.5-7.53h2.43zm7.47 0h-1.78l.5-7.53h2.28zm3.17-11.27a1.863 1.863 0 01-1.86 1.86H3.73a1.863 1.863 0 01-1.86-1.86v-.06a1.863 1.863 0 011.86-1.86h15.68a1.863 1.863 0 011.86 1.86z" data-name="Path 907"/></symbol><symbol viewBox="0 0 20 22" id="svg-calendar-icon"><g fill="none" stroke="#a4a4a4" stroke-linecap="round" stroke-linejoin="round" stroke-width="2" data-name="Group 274"><path d="M17 3H3a2 2 0 00-2 2v14a2 2 0 002 2h14a2 2 0 002-2V5a2 2 0 00-2-2z" data-name="Path 133"/><path d="M14 1v4" data-name="Path 134"/><path d="M6 1v4" data-name="Path 135"/><path d="M1 9h18" data-name="Path 136"/></g></symbol><symbol viewBox="0 0 33 33" id="svg-dish-icon"><defs><clipPath id="ea"><path fill="#fff" d="M0 0h33v33H0z" data-name="Rectangle 392" transform="translate(404 1866)"/></clipPath></defs><g stroke="#000" stroke-width=".5" clip-path="url(#ea)" data-name="Group 205" transform="translate(-404 -1866)"><path d="M428.422 1874.44a3.594 3.594 0 00.4-3.66 6.648 6.648 0 00-.991-1.73.546.546 0 10-.838.7c.026.03 1.9 2.33.572 4.02-1.907 2.43.126 5.64.214 5.77a.549.549 0 00.458.25.548.548 0 00.458-.84c-.019-.03-1.695-2.69-.273-4.51z" data-name="Path 867"/><path d="M432.085 1874.44a3.594 3.594 0 00.4-3.66 6.648 6.648 0 00-.991-1.73.546.546 0 10-.838.7c.019.02 1.9 2.32.572 4.02-1.908 2.43.126 5.64.214 5.77a.548.548 0 00.458.25.548.548 0 00.458-.84c-.018-.03-1.699-2.69-.273-4.51z" data-name="Path 868"/><path d="M409.17 1874.69a3.594 3.594 0 00.4-3.66 6.647 6.647 0 00-.991-1.73.546.546 0 10-.838.7c.019.02 1.9 2.33.572 4.02-1.908 2.43.126 5.64.214 5.77a.559.559 0 00.754.17.552.552 0 00.162-.76c-.019-.02-1.699-2.69-.273-4.51z" data-name="Path 869"/><path d="M412.833 1874.69a3.594 3.594 0 00.4-3.66 6.613 6.613 0 00-.991-1.73.546.546 0 10-.838.7c.019.02 1.9 2.33.572 4.02-1.908 2.43.126 5.64.214 5.77a.559.559 0 00.754.17.552.552 0 00.162-.76c-.019-.02-1.699-2.69-.273-4.51z" data-name="Path 870"/><path d="M435.188 1891.84h-1.157a13.541 13.541 0 00-12.328-12.92v-.55a2.283 2.283 0 00-1.178-4.24h-.05a2.283 2.283 0 00-1.178 4.24v.55a13.541 13.541 0 00-12.328 12.92h-1.157a1.812 1.812 0 00-1.812 1.81v.68a1.82 1.82 0 001.811 1.82h29.378a1.82 1.82 0 001.811-1.82v-.68a1.812 1.812 0 00-1.812-1.81zm-15.907-15.43a1.191 1.191 0 011.194-1.19h.049a1.19 1.19 0 01.434 2.3.54.54 0 00-.346.51v.84h-.224v-.84a.54.54 0 00-.346-.51 1.19 1.19 0 01-.761-1.11zm15.907 18.65h-29.377a.728.728 0 01-.72-.73v-.68a.725.725 0 01.72-.72h20.51a.542.542 0 00.546-.54.551.551 0 00-.546-.55h-18.259a12.445 12.445 0 0112.363-11.88h.15a12.445 12.445 0 0112.363 11.88h-3.087a.55.55 0 00-.546.55.542.542 0 00.546.54h5.337a.725.725 0 01.72.72v.68h0a.728.728 0 01-.72.73z" data-name="Path 871"/></g></symbol><symbol viewBox="0 0 32 32" id="svg-drink-icon"><defs><clipPath id="fa"><path fill="#fff" d="M0 0h32v32H0z" data-name="Rectangle 393" transform="translate(804 1867)"/></clipPath></defs><g clip-path="url(#fa)" data-name="Group 209" transform="translate(-804 -1867)"><path d="M818.533 1891.76a3.005 3.005 0 004.772-.63s.005-.01.007-.01c.01-.02.016-.03.024-.05a3.029 3.029 0 00.377-1.36v-.02a3.1 3.1 0 00-.017-.34c-.006-.06-.01-.13-.02-.2-.015-.1-.037-.19-.06-.29a3.133 3.133 0 00-.173-.49 2.506 2.506 0 00-.15-.28c-.037-.06-.069-.13-.11-.19a3.089 3.089 0 00-.354-.43l-1.29-1.3a3.036 3.036 0 00-4.3 0 1.267 1.267 0 00-.176.21l-.039.05s-.005.01-.009.01a3.038 3.038 0 00.224 4.03zm-.169-4.94a.794.794 0 00.115-.07 1.336 1.336 0 01.182-.09.676.676 0 01.131-.05l.191-.06a.629.629 0 01.136-.02 1.314 1.314 0 01.2-.02h.136a1.341 1.341 0 01.2.02.584.584 0 01.131.02.77.77 0 01.2.06.633.633 0 01.121.04 1.664 1.664 0 01.209.11c.031.02.061.03.093.05a1.7 1.7 0 01.273.23l1.29 1.29a1.718 1.718 0 01.241.3l.019.03a1.925 1.925 0 01.151.31s0 .01.005.01a1.956 1.956 0 01.091.35 1.934 1.934 0 01.017.38l-.622-.59a2.149 2.149 0 00-1.459-.6.848.848 0 00-.159.01.846.846 0 01-.642-.22l-1.277-1.47c.007-.01.016-.02.026-.02zm-.734 1.06l1.107 1.27a2.112 2.112 0 001.618.59.9.9 0 01.682.25l.947.9-.008.01a1.83 1.83 0 01-2.581 0l-1.289-1.29a1.816 1.816 0 01-.476-1.73z" data-name="Path 876"/><path d="M811.524 1880.15h.646l.422 6.54.522 8.09.162 2.51a1.829 1.829 0 001.824 1.71h9.881a1.83 1.83 0 001.821-1.71l.161-2.51.523-8.09.422-6.54h.646a1.221 1.221 0 001.216-1.22v-2.43a1.221 1.221 0 00-1.216-1.22h-.813l-1.12-2.66a.609.609 0 00-.56-.38h-12.04a.609.609 0 00-.561.38l-1.12 2.66h-.813a1.221 1.221 0 00-1.216 1.22v2.43a1.221 1.221 0 001.213 1.22zm14.061 17.06a.6.6 0 01-.608.57H815.1a.6.6 0 01-.608-.57l-.119-1.86h11.335zm.829-12.84l-.631 9.77H814.29l-.629-9.77-.036-.57h12.825zm.115-1.79h-12.983l-.157-2.43h13.3zm-12.107-9.12h11.231l.766 1.82h-12.763zm-2.9 3.04h17.027v2.43h-17.025z" data-name="Path 877"/><path d="M823.674 1871.03h.012a.612.612 0 00.608-.6 1.364 1.364 0 01.482-1.01 2.536 2.536 0 00.79-1.8.613.613 0 00-.6-.62h-.012a.605.605 0 00-.608.6 1.363 1.363 0 01-.481 1.01 2.541 2.541 0 00-.791 1.8.614.614 0 00.6.62z" data-name="Path 878"/><path d="M826.8 1871.03h.012a.612.612 0 00.608-.6 1.36 1.36 0 01.482-1.01 2.544 2.544 0 00.79-1.8.614.614 0 00-.6-.62h-.013a.613.613 0 00-.608.6 1.36 1.36 0 01-.482 1.01 2.544 2.544 0 00-.79 1.8.609.609 0 00.601.62z" data-name="Path 879"/></g></symbol><symbol viewBox="0 0 12 22" id="svg-facebook-icon"><path d="M7.789 22V11.965h3.538l.53-3.91H7.789v-2.5c0-1.132.327-1.9 2.036-1.9H12V.154A30.561 30.561 0 008.83 0C5.695 0 3.547 1.823 3.547 5.17v2.884H0v3.91h3.547V22z"/></symbol><symbol viewBox="0 0 10 10" id="svg-filled-circle"><path d="M255 0C114.75 0 0 114.75 0 255s114.75 255 255 255 255-114.75 255-255S395.25 0 255 0z"/></symbol><symbol viewBox="0 0 21.8 32" id="svg-ice-cream-icon"><path d="M21.05 13.32a2.944 2.944 0 00.16-.94 2.8 2.8 0 00-2.07-2.71 2.752 2.752 0 00.2-1.04 2.82 2.82 0 00-2.4-2.78 3.752 3.752 0 00-2-5.45L13.79 0l-.09 1.22a.928.928 0 01-.93.85H7.15a2.812 2.812 0 00-2.81 2.81 2.752 2.752 0 00.2 1.04 2.811 2.811 0 00-2.08 2.71 2.752 2.752 0 00.2 1.04 2.8 2.8 0 00-2.07 2.71 2.944 2.944 0 00.16.94H0l3.39 7.49h1.78L7.31 32h7.18l2.14-11.19h1.78l3.39-7.49zm-8.11 16.81H8.86l-1.78-9.32h7.64zm4.26-11.19H4.6l-1.7-3.75h16zm1.2-5.62h-15a.94.94 0 010-1.88h3.75V9.57H5.28a.94.94 0 110-1.88h3.75V5.82H7.15a.94.94 0 010-1.88h5.62a2.811 2.811 0 002.34-1.25 1.877 1.877 0 01-1.4 3.13h-.94v1.87h3.75a.94.94 0 110 1.88h-1.87v1.87h3.75a.94.94 0 010 1.88z" data-name="Path 883"/></symbol><symbol viewBox="0 0 22 22" id="svg-instagram-icon"><path d="M11.069 1.925h4.426a5.58 5.58 0 012.075.412 2.488 2.488 0 011.245.825 3.245 3.245 0 01.83 1.237 5.487 5.487 0 01.415 2.062v8.8a5.487 5.487 0 01-.415 2.062 2.472 2.472 0 01-.83 1.237 3.268 3.268 0 01-1.245.825 5.58 5.58 0 01-2.075.412H6.643a5.58 5.58 0 01-2.075-.412 2.488 2.488 0 01-1.245-.825 3.245 3.245 0 01-.83-1.237 5.487 5.487 0 01-.415-2.062v-8.8A5.487 5.487 0 012.493 4.4a2.472 2.472 0 01.83-1.237 3.268 3.268 0 011.245-.825 5.58 5.58 0 012.075-.413h4.426m0-1.925H6.503a14.769 14.769 0 00-2.627.55A5.806 5.806 0 001.94 1.787 4.222 4.222 0 00.553 3.849a14.52 14.52 0 00-.55 2.613v9.074a5.551 5.551 0 00.55 2.612 5.762 5.762 0 001.245 1.925 5.806 5.806 0 001.944 1.237 10.2 10.2 0 002.761.69h9.127a5.643 5.643 0 002.628-.55 5.4 5.4 0 003.187-3.162 8.83 8.83 0 00.55-2.612V6.6a5.551 5.551 0 00-.55-2.612 5.762 5.762 0 00-1.242-1.926A5.806 5.806 0 0018.258.825 5.9 5.9 0 0015.634 0z" data-name="Path 79" opacity=".8"/><path d="M11.07 5.538a5.46 5.46 0 105.458 5.46 5.459 5.459 0 00-5.458-5.46zm0 9.057a3.6 3.6 0 112.568-1.041 3.6 3.6 0 01-2.568 1.041z" data-name="Path 80"/><circle cx="1.42" cy="1.42" r="1.42" data-name="Ellipse 2" transform="translate(15.574 3.695)"/></symbol><symbol viewBox="0 0 22 22" id="svg-instagram-logo"><path fill="#f2994a" d="M11.069 1.925h4.426a5.58 5.58 0 012.075.412 2.488 2.488 0 011.245.825 3.245 3.245 0 01.83 1.237 5.487 5.487 0 01.415 2.062v8.8a5.487 5.487 0 01-.415 2.062 2.472 2.472 0 01-.83 1.237 3.268 3.268 0 01-1.245.825 5.58 5.58 0 01-2.075.412H6.643a5.58 5.58 0 01-2.075-.412 2.488 2.488 0 01-1.245-.825 3.245 3.245 0 01-.83-1.237 5.487 5.487 0 01-.415-2.062v-8.8A5.487 5.487 0 012.493 4.4a2.472 2.472 0 01.83-1.237 3.268 3.268 0 011.245-.825 5.58 5.58 0 012.075-.413h4.426m0-1.925H6.503a14.769 14.769 0 00-2.627.55A5.806 5.806 0 001.94 1.787 4.222 4.222 0 00.553 3.849a14.52 14.52 0 00-.55 2.613v9.074a5.551 5.551 0 00.55 2.612 5.762 5.762 0 001.245 1.925 5.806 5.806 0 001.944 1.237 10.2 10.2 0 002.761.69h9.127a5.643 5.643 0 002.628-.55 5.4 5.4 0 003.187-3.162 8.83 8.83 0 00.55-2.612V6.6a5.551 5.551 0 00-.55-2.612 5.762 5.762 0 00-1.242-1.926A5.806 5.806 0 0018.258.825 5.9 5.9 0 0015.634 0z" data-name="Path 79" opacity=".8"/><path fill="#f2994a" d="M11.07 5.538a5.46 5.46 0 105.458 5.46 5.459 5.459 0 00-5.458-5.46zm0 9.057a3.6 3.6 0 112.568-1.041 3.6 3.6 0 01-2.568 1.041z" data-name="Path 80" opacity=".8"/><circle cx="1.42" cy="1.42" r="1.42" fill="#f2994a" data-name="Ellipse 2" opacity=".8" transform="translate(15.574 3.695)"/></symbol><symbol viewBox="0 0 256 256" id="svg-left-chevron"><path d="M207.093 30.187L176.907 0l-128 128 128 128 30.186-30.187L109.28 128z"/></symbol><symbol viewBox="0 0 23 18" id="svg-menu-burger"><path d="M28 10H4a1 1 0 010-2h24a1 1 0 010 2zm0 7H4a1 1 0 010-2h24a1 1 0 010 2zm0 7H4a1 1 0 010-2h24a1 1 0 010 2z" data-name="Layer 2"/><path fill="none" d="M0 0h23v18H0z"/></symbol><symbol viewBox="0 0 14 16" id="svg-play-icon"><path d="M14 8L0 16V0z" data-name="Path 169"/></symbol><symbol viewBox="0 0 53 43" id="svg-quote-icon"><path fill="#a4a4a4" d="M20.172 22.788V43H0V28.733A37.843 37.843 0 0112.063 0l7.515 5.945q-7.713 8.516-8.7 16.844zm32.828 0V43H32.828V28.733A37.843 37.843 0 0144.891 0l7.515 5.945q-7.713 8.516-8.7 16.844z" data-name="Path 154"/></symbol><symbol viewBox="0 0 256 256" id="svg-right-chevron"><path d="M79.093 0L48.907 30.187 146.72 128l-97.813 97.813L79.093 256l128-128z"/></symbol><symbol viewBox="0 0 18.174 18.164" id="svg-search-icon"><g fill="none" stroke="#797979" stroke-linecap="round" stroke-linejoin="round" stroke-width="2" data-name="Group 273"><path d="M8 15a7 7 0 10-7-7 7 7 0 007 7z" data-name="Path 12"/><path d="M16.76 16.75l-3.81-3.806" data-name="Path 13"/></g></symbol><symbol viewBox="0 0 22.49 31.004" id="svg-snack-icon"><path d="M21.663 9.554a3.051 3.051 0 00-.84-2.09 3.289 3.289 0 00-.918-.67 3.082 3.082 0 00-2.659-3.76 3.313 3.313 0 00-.834.02v-.1a5.592 5.592 0 00-10.329.04v.06a4.141 4.141 0 00-.5-.04 3.113 3.113 0 00-3.071 3.18 3.189 3.189 0 00.079.61 3.059 3.059 0 00-1.759 2.75H.006l3.387 21.45h15.716l3.387-21.45zM3.875 8.324l.886-.03v-1.19l-.184-.24a1.274 1.274 0 011-2.03 1.253 1.253 0 01.985.47c.03.04.057.07.07.09l.605.63.658-.58c.079-.07.161-.14.245-.22l.7-.6-.626-.69a1.262 1.262 0 01.864-2.11 1.257 1.257 0 011.281.91l.191.65h1.37l.19-.65a1.262 1.262 0 112.172 1.17l-.548.64 1.549 1.54.633-.78a1.247 1.247 0 011.125-.46 1.274 1.274 0 011.112 1.13 1.255 1.255 0 01-.251.89l-.185.24v1.2l.887.02a1.208 1.208 0 01.889.39 1.26 1.26 0 01.344.84H2.645a1.243 1.243 0 011.23-1.23zm11.584 3.05l-.471 5.01a9.1 9.1 0 00-2.835-.69v-4.32zm-5.122 0v4.32a9.1 9.1 0 00-2.835.69l-.471-5.01zm-5.4 17.81l-2.813-17.81h3.08l.586 6.23a2.6 2.6 0 00-.667 1.71 2.748 2.748 0 001.023 2.07l.733 7.8zm5.4 0H8.706l-.632-6.72a9.374 9.374 0 002.263.47zm3.447 0h-1.631v-6.25a9.374 9.374 0 002.263-.47zm-2.539-8.03c-2.627 0-4.3-1.09-4.3-1.84s1.677-1.84 4.3-1.84 4.3 1.09 4.3 1.84-1.673 1.84-4.3 1.84zm6.306 8.03h-1.942l.733-7.8a2.748 2.748 0 001.023-2.07 2.6 2.6 0 00-.667-1.71l.585-6.23h3.081z" data-name="Path 872"/></symbol><symbol viewBox="0 0 15 14" id="svg-star-icon"><defs><clipPath id="sa"><path d="M0 0h15v14H0z" data-name="Rectangle 9" transform="translate(805 684)"/></clipPath></defs><g clip-path="url(#sa)" data-name="Group 4" transform="translate(-805 -684)"><path d="M811.752 684.487l-1.7 3.62-3.8.582a.888.888 0 00-.461 1.493l2.748 2.818-.651 3.978a.842.842 0 001.208.922l3.4-1.879 3.4 1.879a.843.843 0 001.209-.922l-.644-3.978 2.752-2.817a.887.887 0 00-.461-1.493l-3.8-.582-1.7-3.62a.817.817 0 00-1.5-.001z" data-name="Path 19"/></g></symbol><symbol viewBox="0 0 30 36" id="svg-tea-icon"><defs><clipPath id="ta"><path d="M0 0h30v36H0z" data-name="Rectangle 45" transform="translate(207 1865)"/></clipPath></defs><g clip-path="url(#ta)" data-name="Group 20" transform="translate(-207 -1865)"><path d="M207 1879.98v10.54a10.165 10.165 0 003.021 7.42 9.912 9.912 0 007.326 3.06h2.986a9.861 9.861 0 006.771-2.57 10.306 10.306 0 003.438-6.43h.139a6.029 6.029 0 005.972-5.98 5.834 5.834 0 00-1.771-4.25 5.686 5.686 0 00-4.2-1.79 2.868 2.868 0 00-.869-2.08 2.806 2.806 0 00-2.048-.88h-17.779a2.984 2.984 0 00-2.986 2.96zm23.681 3.02a2.85 2.85 0 012.118.88 2.925 2.925 0 01.868 2.14 2.984 2.984 0 01-2.986 2.96zm-2.917 7.52a7.244 7.244 0 01-2.153 5.28 7.143 7.143 0 01-5.278 2.18h-2.986a7.062 7.062 0 01-5.208-2.18 7.244 7.244 0 01-2.153-5.28v-10.54h17.778zm-10.7-23.13a1.464 1.464 0 00-.416-2.11 1.251 1.251 0 00-1.945.35l-.764.99a6.841 6.841 0 00-1.007 4.39 6.54 6.54 0 001.91 4.04 1.478 1.478 0 002.084 0 1.448 1.448 0 000-2.1 3.611 3.611 0 01-1.042-2.22 3.538 3.538 0 01.625-2.43zm5.209 3.73l.555-.57a1.449 1.449 0 00.139-2.1 1.085 1.085 0 00-.937-.46 1.471 1.471 0 00-1.077.31l-.625.57a3.493 3.493 0 00-1.319 3.16 4.139 4.139 0 002.222 3.17.571.571 0 00.556.28 1.708 1.708 0 001.389-.71 1.368 1.368 0 00-.625-2.11c-.51-.32-.764-.58-.764-.77z" data-name="Path 64"/></g></symbol><symbol viewBox="0 0 22 20" id="svg-twitter-icon"><path d="M21.393.37a8.452 8.452 0 01-2.868 1.222A4.3 4.3 0 0015.23 0a4.807 4.807 0 00-4.512 5.049 5.592 5.592 0 00.116 1.15A12.415 12.415 0 011.532.921a5.508 5.508 0 00-.611 2.542 5.227 5.227 0 002.012 4.2 4.157 4.157 0 01-2.05-.631V7.1A4.946 4.946 0 004.5 12.048a3.967 3.967 0 01-1.189.174 4.044 4.044 0 01-.85-.09 4.611 4.611 0 004.216 3.5A8.414 8.414 0 010 17.733 11.828 11.828 0 006.914 20c8.3 0 12.842-7.692 12.842-14.364 0-.222 0-.444-.012-.654A9.8 9.8 0 0022 2.368a8.281 8.281 0 01-2.592.794A5 5 0 0021.393.37"/></symbol></svg>